<svg width="204" height="80" viewBox="0 0 204 80" fill="none" xmlns="http://www.w3.org/2000/svg">
<g filter="url(#filter0_d_5_13)">
<path d="M29.2764 46.5566C29.2764 45.709 29.1452 44.9521 28.8828 44.2861C28.6406 43.5999 28.1865 42.9844 27.5205 42.4395C26.8747 41.8743 25.9564 41.3294 24.7656 40.8047C23.5951 40.2598 22.0814 39.6947 20.2246 39.1094C18.166 38.4635 16.2487 37.737 14.4727 36.9297C12.6966 36.1224 11.1325 35.1839 9.78027 34.1143C8.44824 33.0446 7.40885 31.8135 6.66211 30.4209C5.91536 29.0081 5.54199 27.3734 5.54199 25.5166C5.54199 23.7002 5.92546 22.0452 6.69238 20.5518C7.47949 19.0583 8.58952 17.7767 10.0225 16.707C11.4554 15.6172 13.1406 14.7796 15.0781 14.1943C17.0358 13.609 19.1953 13.3164 21.5566 13.3164C24.8262 13.3164 27.6517 13.9118 30.0332 15.1025C32.4349 16.2933 34.2917 17.9079 35.6035 19.9463C36.9154 21.9847 37.5713 24.2754 37.5713 26.8184H29.2764C29.2764 25.446 28.9837 24.235 28.3984 23.1855C27.8333 22.1361 26.9655 21.3086 25.7949 20.7031C24.6445 20.0977 23.1914 19.7949 21.4355 19.7949C19.7402 19.7949 18.3275 20.0472 17.1973 20.5518C16.0872 21.0563 15.2497 21.7425 14.6846 22.6104C14.1396 23.4782 13.8672 24.4469 13.8672 25.5166C13.8672 26.3239 14.0589 27.0505 14.4424 27.6963C14.8258 28.3219 15.401 28.9173 16.168 29.4824C16.9349 30.0273 17.8835 30.542 19.0137 31.0264C20.1641 31.4906 21.4961 31.9548 23.0098 32.4189C25.4316 33.1455 27.5508 33.9528 29.3672 34.8408C31.2038 35.7288 32.7275 36.738 33.9385 37.8682C35.1696 38.9984 36.0879 40.2699 36.6934 41.6826C37.319 43.0954 37.6318 44.6999 37.6318 46.4961C37.6318 48.3932 37.2585 50.0885 36.5117 51.582C35.765 53.0755 34.6953 54.347 33.3027 55.3965C31.9102 56.446 30.235 57.2432 28.2773 57.7881C26.3398 58.333 24.1702 58.6055 21.7686 58.6055C19.6292 58.6055 17.5101 58.3229 15.4111 57.7578C13.3324 57.1725 11.4453 56.3047 9.75 55.1543C8.05469 53.9837 6.70247 52.5104 5.69336 50.7344C4.68424 48.9382 4.17969 46.8392 4.17969 44.4375H12.5352C12.5352 45.8301 12.7572 47.0208 13.2012 48.0098C13.6654 48.9785 14.3112 49.7757 15.1387 50.4014C15.9863 51.0068 16.9753 51.4508 18.1055 51.7334C19.2357 52.016 20.4567 52.1572 21.7686 52.1572C23.4639 52.1572 24.8564 51.9251 25.9463 51.4609C27.0563 50.9766 27.8838 50.3105 28.4287 49.4629C28.9938 48.6152 29.2764 47.6465 29.2764 46.5566ZM51.4365 31.541V70.5938H43.4141V25.2441H50.8311L51.4365 31.541ZM72.4766 41.2891V41.9248C72.4766 44.3063 72.194 46.5163 71.6289 48.5547C71.084 50.5729 70.2767 52.3389 69.207 53.8525C68.1374 55.346 66.8053 56.5166 65.2109 57.3643C63.6367 58.1917 61.8203 58.6055 59.7617 58.6055C57.7435 58.6055 55.9876 58.222 54.4941 57.4551C53.0007 56.668 51.7393 55.5579 50.71 54.125C49.6807 52.6921 48.8532 51.027 48.2275 49.1299C47.6221 47.2126 47.168 45.1237 46.8652 42.8633V40.835C47.168 38.4333 47.6221 36.2536 48.2275 34.2959C48.8532 32.318 49.6807 30.6126 50.71 29.1797C51.7393 27.7266 52.9906 26.6064 54.4639 25.8193C55.9574 25.0322 57.7031 24.6387 59.7012 24.6387C61.7799 24.6387 63.6064 25.0322 65.1807 25.8193C66.7751 26.6064 68.1172 27.7367 69.207 29.21C70.2969 30.6833 71.1143 32.4391 71.6592 34.4775C72.2041 36.516 72.4766 38.7865 72.4766 41.2891ZM64.4541 41.9248V41.2891C64.4541 39.8359 64.3229 38.4938 64.0605 37.2627C63.7982 36.0114 63.3945 34.9215 62.8496 33.9932C62.3047 33.0446 61.5983 32.3079 60.7305 31.7832C59.8626 31.2585 58.8132 30.9961 57.582 30.9961C56.3509 30.9961 55.2913 31.1979 54.4033 31.6016C53.5153 32.0052 52.7887 32.5804 52.2236 33.3271C51.6585 34.0739 51.2145 34.9619 50.8916 35.9912C50.5889 37.0003 50.387 38.1204 50.2861 39.3516V44.377C50.4678 45.8704 50.821 47.2126 51.3457 48.4033C51.8704 49.5941 52.6374 50.5426 53.6465 51.249C54.6758 51.9554 56.0078 52.3086 57.6426 52.3086C58.8737 52.3086 59.9232 52.0361 60.791 51.4912C61.6589 50.9463 62.3652 50.1995 62.9102 49.251C63.4551 48.2822 63.8486 47.1722 64.0908 45.9209C64.333 44.6696 64.4541 43.3376 64.4541 41.9248Z" fill="#1DB954"/>
<path d="M144.103 25.2441V30.9961H125.333V25.2441H144.103ZM130.358 17.1914H138.381V48.5547C138.381 49.5234 138.512 50.2702 138.774 50.7949C139.037 51.3197 139.43 51.6729 139.955 51.8545C140.48 52.0361 141.105 52.127 141.832 52.127C142.357 52.127 142.841 52.0967 143.285 52.0361C143.729 51.9756 144.103 51.915 144.405 51.8545L144.436 57.8486C143.77 58.0706 143.013 58.2523 142.165 58.3936C141.338 58.5348 140.399 58.6055 139.35 58.6055C137.553 58.6055 135.979 58.3027 134.627 57.6973C133.275 57.0716 132.225 56.0726 131.479 54.7002C130.732 53.3076 130.358 51.471 130.358 49.1904V17.1914ZM157.423 31.9346V58H149.431V25.2441H156.999L157.423 31.9346ZM167.383 25.0322L167.262 32.4795C166.818 32.3988 166.313 32.3382 165.748 32.2979C165.203 32.2575 164.688 32.2373 164.204 32.2373C162.973 32.2373 161.893 32.4089 160.965 32.752C160.036 33.0749 159.259 33.5492 158.634 34.1748C158.028 34.8005 157.564 35.5674 157.241 36.4756C156.918 37.3636 156.737 38.3727 156.696 39.5029L154.971 39.291C154.971 37.2122 155.183 35.2848 155.606 33.5088C156.03 31.7327 156.646 30.1787 157.453 28.8467C158.26 27.5146 159.27 26.4854 160.48 25.7588C161.712 25.012 163.124 24.6387 164.719 24.6387C165.163 24.6387 165.637 24.679 166.142 24.7598C166.666 24.8203 167.08 24.9111 167.383 25.0322ZM181.914 54.3672L190.693 25.2441H199.261L186.122 62.9648C185.819 63.7721 185.426 64.6501 184.941 65.5986C184.477 66.5472 183.852 67.4453 183.064 68.293C182.277 69.1608 181.288 69.8672 180.098 70.4121C178.927 70.957 177.504 71.2295 175.829 71.2295C175.103 71.2295 174.457 71.179 173.892 71.0781C173.326 70.9772 172.731 70.846 172.105 70.6846V64.6904C172.307 64.7106 172.539 64.7207 172.802 64.7207C173.084 64.7409 173.326 64.751 173.528 64.751C174.699 64.751 175.668 64.6097 176.435 64.3271C177.201 64.0648 177.817 63.6309 178.281 63.0254C178.766 62.4401 179.169 61.6732 179.492 60.7246L181.914 54.3672ZM177.585 25.2441L185.002 49.3721L186.304 57.8184L180.794 58.8174L168.957 25.2441H177.585Z" fill="#1DB954"/>
<circle cx="100" cy="37" r="24" fill="#1DB954"/>
</g>
<defs>
<filter id="filter0_d_5_13" x="-2" y="0" width="206" height="81" filterUnits="userSpaceOnUse" color-interpolation-filters="sRGB">
<feFlood flood-opacity="0" result="BackgroundImageFix"/>
<feColorMatrix in="SourceAlpha" type="matrix" values="0 0 0 0 0 0 0 0 0 0 0 0 0 0 0 0 0 0 127 0" result="hardAlpha"/>
<feOffset dy="4"/>
<feGaussianBlur stdDeviation="2"/>
<feComposite in2="hardAlpha" operator="out"/>
<feColorMatrix type="matrix" values="0 0 0 0 0 0 0 0 0 0 0 0 0 0 0 0 0 0 0.25 0"/>
<feBlend mode="normal" in2="BackgroundImageFix" result="effect1_dropShadow_5_13"/>
<feBlend mode="normal" in="SourceGraphic" in2="effect1_dropShadow_5_13" result="shape"/>
</filter>
</defs>
</svg>
